<mxfile host="app.diagrams.net" modified="2021-09-13T17:46:02.380Z" agent="5.0 (Windows NT 10.0; Win64; x64) AppleWebKit/537.36 (KHTML, like Gecko) Chrome/86.0.4240.183 Safari/537.36" etag="BPvy4iZGjvEFO-vGc5f3" version="15.2.4" type="github">
  <diagram id="IaoOBaFeKWCzCHVkw80Q" name="Page-1">
    <mxGraphModel dx="2249" dy="1963" grid="1" gridSize="10" guides="1" tooltips="1" connect="1" arrows="1" fold="1" page="1" pageScale="1" pageWidth="827" pageHeight="1169" math="0" shadow="0">
      <root>
        <mxCell id="0" />
        <mxCell id="1" parent="0" />
        <mxCell id="IbaEE7Q07gjaWqTb2W9u-1" value="C_Human" style="swimlane;fontStyle=1;align=center;verticalAlign=top;childLayout=stackLayout;horizontal=1;startSize=26;horizontalStack=0;resizeParent=1;resizeParentMax=0;resizeLast=0;collapsible=1;marginBottom=0;" vertex="1" parent="1">
          <mxGeometry x="710" y="160" width="180" height="164" as="geometry" />
        </mxCell>
        <mxCell id="IbaEE7Q07gjaWqTb2W9u-2" value="- name: string" style="text;strokeColor=#d6b656;fillColor=#fff2cc;align=left;verticalAlign=top;spacingLeft=4;spacingRight=4;overflow=hidden;rotatable=0;points=[[0,0.5],[1,0.5]];portConstraint=eastwest;" vertex="1" parent="IbaEE7Q07gjaWqTb2W9u-1">
          <mxGeometry y="26" width="180" height="26" as="geometry" />
        </mxCell>
        <mxCell id="IbaEE7Q07gjaWqTb2W9u-39" value="- fname: string" style="text;strokeColor=#d6b656;fillColor=#fff2cc;align=left;verticalAlign=top;spacingLeft=4;spacingRight=4;overflow=hidden;rotatable=0;points=[[0,0.5],[1,0.5]];portConstraint=eastwest;" vertex="1" parent="IbaEE7Q07gjaWqTb2W9u-1">
          <mxGeometry y="52" width="180" height="26" as="geometry" />
        </mxCell>
        <mxCell id="IbaEE7Q07gjaWqTb2W9u-40" value="- age: int" style="text;strokeColor=#d6b656;fillColor=#fff2cc;align=left;verticalAlign=top;spacingLeft=4;spacingRight=4;overflow=hidden;rotatable=0;points=[[0,0.5],[1,0.5]];portConstraint=eastwest;" vertex="1" parent="IbaEE7Q07gjaWqTb2W9u-1">
          <mxGeometry y="78" width="180" height="26" as="geometry" />
        </mxCell>
        <mxCell id="IbaEE7Q07gjaWqTb2W9u-3" value="" style="line;strokeWidth=1;fillColor=none;align=left;verticalAlign=middle;spacingTop=-1;spacingLeft=3;spacingRight=3;rotatable=0;labelPosition=right;points=[];portConstraint=eastwest;" vertex="1" parent="IbaEE7Q07gjaWqTb2W9u-1">
          <mxGeometry y="104" width="180" height="8" as="geometry" />
        </mxCell>
        <mxCell id="IbaEE7Q07gjaWqTb2W9u-41" value="+ C_Humans(): &#xa; " style="text;strokeColor=#d79b00;fillColor=#ffe6cc;align=left;verticalAlign=top;spacingLeft=4;spacingRight=4;overflow=hidden;rotatable=0;points=[[0,0.5],[1,0.5]];portConstraint=eastwest;" vertex="1" parent="IbaEE7Q07gjaWqTb2W9u-1">
          <mxGeometry y="112" width="180" height="26" as="geometry" />
        </mxCell>
        <mxCell id="IbaEE7Q07gjaWqTb2W9u-43" value="+ show_info(): void" style="text;strokeColor=#6c8ebf;fillColor=#dae8fc;align=left;verticalAlign=top;spacingLeft=4;spacingRight=4;overflow=hidden;rotatable=0;points=[[0,0.5],[1,0.5]];portConstraint=eastwest;" vertex="1" parent="IbaEE7Q07gjaWqTb2W9u-1">
          <mxGeometry y="138" width="180" height="26" as="geometry" />
        </mxCell>
        <mxCell id="IbaEE7Q07gjaWqTb2W9u-5" value="C_Apartment" style="swimlane;fontStyle=1;align=center;verticalAlign=top;childLayout=stackLayout;horizontal=1;startSize=26;horizontalStack=0;resizeParent=1;resizeParentMax=0;resizeLast=0;collapsible=1;marginBottom=0;" vertex="1" parent="1">
          <mxGeometry x="280" y="160" width="160" height="86" as="geometry" />
        </mxCell>
        <mxCell id="IbaEE7Q07gjaWqTb2W9u-7" value="" style="line;strokeWidth=1;fillColor=none;align=left;verticalAlign=middle;spacingTop=-1;spacingLeft=3;spacingRight=3;rotatable=0;labelPosition=right;points=[];portConstraint=eastwest;" vertex="1" parent="IbaEE7Q07gjaWqTb2W9u-5">
          <mxGeometry y="26" width="160" height="8" as="geometry" />
        </mxCell>
        <mxCell id="IbaEE7Q07gjaWqTb2W9u-35" value="+ C_Apartment(): &#xa; " style="text;strokeColor=#d79b00;fillColor=#ffe6cc;align=left;verticalAlign=top;spacingLeft=4;spacingRight=4;overflow=hidden;rotatable=0;points=[[0,0.5],[1,0.5]];portConstraint=eastwest;" vertex="1" parent="IbaEE7Q07gjaWqTb2W9u-5">
          <mxGeometry y="34" width="160" height="26" as="geometry" />
        </mxCell>
        <mxCell id="IbaEE7Q07gjaWqTb2W9u-34" value="+ virtual show_info(): void override" style="text;strokeColor=#6c8ebf;fillColor=#dae8fc;align=left;verticalAlign=top;spacingLeft=4;spacingRight=4;overflow=hidden;rotatable=0;points=[[0,0.5],[1,0.5]];portConstraint=eastwest;" vertex="1" parent="IbaEE7Q07gjaWqTb2W9u-5">
          <mxGeometry y="60" width="160" height="26" as="geometry" />
        </mxCell>
        <mxCell id="IbaEE7Q07gjaWqTb2W9u-9" value="C_House:" style="swimlane;fontStyle=1;align=center;verticalAlign=top;childLayout=stackLayout;horizontal=1;startSize=26;horizontalStack=0;resizeParent=1;resizeParentMax=0;resizeLast=0;collapsible=1;marginBottom=0;" vertex="1" parent="1">
          <mxGeometry x="40" y="160" width="200" height="86" as="geometry" />
        </mxCell>
        <mxCell id="IbaEE7Q07gjaWqTb2W9u-11" value="" style="line;strokeWidth=1;fillColor=none;align=left;verticalAlign=middle;spacingTop=-1;spacingLeft=3;spacingRight=3;rotatable=0;labelPosition=right;points=[];portConstraint=eastwest;" vertex="1" parent="IbaEE7Q07gjaWqTb2W9u-9">
          <mxGeometry y="26" width="200" height="8" as="geometry" />
        </mxCell>
        <mxCell id="IbaEE7Q07gjaWqTb2W9u-17" value="+ C_House_1(): &#xa; " style="text;strokeColor=#d79b00;fillColor=#ffe6cc;align=left;verticalAlign=top;spacingLeft=4;spacingRight=4;overflow=hidden;rotatable=0;points=[[0,0.5],[1,0.5]];portConstraint=eastwest;" vertex="1" parent="IbaEE7Q07gjaWqTb2W9u-9">
          <mxGeometry y="34" width="200" height="26" as="geometry" />
        </mxCell>
        <mxCell id="IbaEE7Q07gjaWqTb2W9u-16" value="+ virtual show_info(): void override " style="text;strokeColor=#6c8ebf;fillColor=#dae8fc;align=left;verticalAlign=top;spacingLeft=4;spacingRight=4;overflow=hidden;rotatable=0;points=[[0,0.5],[1,0.5]];portConstraint=eastwest;" vertex="1" parent="IbaEE7Q07gjaWqTb2W9u-9">
          <mxGeometry y="60" width="200" height="26" as="geometry" />
        </mxCell>
        <mxCell id="IbaEE7Q07gjaWqTb2W9u-20" value="C_House_Abstract:" style="swimlane;fontStyle=1;align=center;verticalAlign=top;childLayout=stackLayout;horizontal=1;startSize=26;horizontalStack=0;resizeParent=1;resizeParentMax=0;resizeLast=0;collapsible=1;marginBottom=0;" vertex="1" parent="1">
          <mxGeometry x="40" y="-160" width="200" height="138" as="geometry" />
        </mxCell>
        <mxCell id="IbaEE7Q07gjaWqTb2W9u-21" value="#  address: string" style="text;strokeColor=#d6b656;fillColor=#fff2cc;align=left;verticalAlign=top;spacingLeft=4;spacingRight=4;overflow=hidden;rotatable=0;points=[[0,0.5],[1,0.5]];portConstraint=eastwest;" vertex="1" parent="IbaEE7Q07gjaWqTb2W9u-20">
          <mxGeometry y="26" width="200" height="26" as="geometry" />
        </mxCell>
        <mxCell id="IbaEE7Q07gjaWqTb2W9u-22" value="#  number of apartments: float" style="text;strokeColor=#d6b656;fillColor=#fff2cc;align=left;verticalAlign=top;spacingLeft=4;spacingRight=4;overflow=hidden;rotatable=0;points=[[0,0.5],[1,0.5]];portConstraint=eastwest;" vertex="1" parent="IbaEE7Q07gjaWqTb2W9u-20">
          <mxGeometry y="52" width="200" height="26" as="geometry" />
        </mxCell>
        <mxCell id="IbaEE7Q07gjaWqTb2W9u-23" value="#  number of floors: float" style="text;strokeColor=#d6b656;fillColor=#fff2cc;align=left;verticalAlign=top;spacingLeft=4;spacingRight=4;overflow=hidden;rotatable=0;points=[[0,0.5],[1,0.5]];portConstraint=eastwest;" vertex="1" parent="IbaEE7Q07gjaWqTb2W9u-20">
          <mxGeometry y="78" width="200" height="26" as="geometry" />
        </mxCell>
        <mxCell id="IbaEE7Q07gjaWqTb2W9u-25" value="" style="line;strokeWidth=1;fillColor=none;align=left;verticalAlign=middle;spacingTop=-1;spacingLeft=3;spacingRight=3;rotatable=0;labelPosition=right;points=[];portConstraint=eastwest;" vertex="1" parent="IbaEE7Q07gjaWqTb2W9u-20">
          <mxGeometry y="104" width="200" height="8" as="geometry" />
        </mxCell>
        <mxCell id="IbaEE7Q07gjaWqTb2W9u-28" value="+ virtual show_info(): void" style="text;strokeColor=#6c8ebf;fillColor=#dae8fc;align=left;verticalAlign=top;spacingLeft=4;spacingRight=4;overflow=hidden;rotatable=0;points=[[0,0.5],[1,0.5]];portConstraint=eastwest;" vertex="1" parent="IbaEE7Q07gjaWqTb2W9u-20">
          <mxGeometry y="112" width="200" height="26" as="geometry" />
        </mxCell>
        <mxCell id="IbaEE7Q07gjaWqTb2W9u-31" value="" style="endArrow=diamondThin;endFill=1;endSize=24;html=1;exitX=0.5;exitY=0;exitDx=0;exitDy=0;entryX=0.643;entryY=0.008;entryDx=0;entryDy=0;entryPerimeter=0;" edge="1" parent="1" source="IbaEE7Q07gjaWqTb2W9u-5" target="IbaEE7Q07gjaWqTb2W9u-9">
          <mxGeometry width="160" relative="1" as="geometry">
            <mxPoint x="440" y="100" as="sourcePoint" />
            <mxPoint x="480" y="156" as="targetPoint" />
            <Array as="points">
              <mxPoint x="360" y="120" />
              <mxPoint x="169" y="120" />
            </Array>
          </mxGeometry>
        </mxCell>
        <mxCell id="IbaEE7Q07gjaWqTb2W9u-52" value="C_Room" style="swimlane;fontStyle=1;align=center;verticalAlign=top;childLayout=stackLayout;horizontal=1;startSize=26;horizontalStack=0;resizeParent=1;resizeParentMax=0;resizeLast=0;collapsible=1;marginBottom=0;" vertex="1" parent="1">
          <mxGeometry x="460" y="160" width="190" height="86" as="geometry" />
        </mxCell>
        <mxCell id="IbaEE7Q07gjaWqTb2W9u-55" value="-  human:  vector&lt;C_Human&gt;" style="text;strokeColor=#d6b656;fillColor=#fff2cc;align=left;verticalAlign=top;spacingLeft=4;spacingRight=4;overflow=hidden;rotatable=0;points=[[0,0.5],[1,0.5]];portConstraint=eastwest;" vertex="1" parent="IbaEE7Q07gjaWqTb2W9u-52">
          <mxGeometry y="26" width="190" height="26" as="geometry" />
        </mxCell>
        <mxCell id="IbaEE7Q07gjaWqTb2W9u-56" value="" style="line;strokeWidth=1;fillColor=none;align=left;verticalAlign=middle;spacingTop=-1;spacingLeft=3;spacingRight=3;rotatable=0;labelPosition=right;points=[];portConstraint=eastwest;" vertex="1" parent="IbaEE7Q07gjaWqTb2W9u-52">
          <mxGeometry y="52" width="190" height="8" as="geometry" />
        </mxCell>
        <mxCell id="IbaEE7Q07gjaWqTb2W9u-59" value="+ show_who_live_in_room(): void" style="text;strokeColor=#6c8ebf;fillColor=#dae8fc;align=left;verticalAlign=top;spacingLeft=4;spacingRight=4;overflow=hidden;rotatable=0;points=[[0,0.5],[1,0.5]];portConstraint=eastwest;" vertex="1" parent="IbaEE7Q07gjaWqTb2W9u-52">
          <mxGeometry y="60" width="190" height="26" as="geometry" />
        </mxCell>
        <mxCell id="IbaEE7Q07gjaWqTb2W9u-60" value="" style="endArrow=diamondThin;endFill=1;endSize=24;html=1;entryX=0.643;entryY=0.008;entryDx=0;entryDy=0;entryPerimeter=0;" edge="1" parent="1">
          <mxGeometry width="160" relative="1" as="geometry">
            <mxPoint x="540" y="160" as="sourcePoint" />
            <mxPoint x="399.9999999999999" y="159.9980000000001" as="targetPoint" />
            <Array as="points">
              <mxPoint x="540" y="119" />
              <mxPoint x="400.4" y="119.31" />
            </Array>
          </mxGeometry>
        </mxCell>
        <mxCell id="IbaEE7Q07gjaWqTb2W9u-61" value="" style="edgeStyle=orthogonalEdgeStyle;rounded=0;orthogonalLoop=1;jettySize=auto;html=1;exitX=-0.005;exitY=0.1;exitDx=0;exitDy=0;exitPerimeter=0;entryX=1;entryY=0.5;entryDx=0;entryDy=0;" edge="1" parent="1" source="IbaEE7Q07gjaWqTb2W9u-1" target="IbaEE7Q07gjaWqTb2W9u-55">
          <mxGeometry relative="1" as="geometry" />
        </mxCell>
        <mxCell id="IbaEE7Q07gjaWqTb2W9u-63" value="Extends" style="endArrow=block;endSize=16;endFill=0;html=1;exitX=0.008;exitY=0.124;exitDx=0;exitDy=0;exitPerimeter=0;entryX=-0.004;entryY=0.083;entryDx=0;entryDy=0;entryPerimeter=0;" edge="1" parent="1" source="IbaEE7Q07gjaWqTb2W9u-9" target="IbaEE7Q07gjaWqTb2W9u-20">
          <mxGeometry width="160" relative="1" as="geometry">
            <mxPoint x="340" y="60" as="sourcePoint" />
            <mxPoint x="500" y="60" as="targetPoint" />
            <Array as="points">
              <mxPoint y="171" />
              <mxPoint y="-149" />
            </Array>
          </mxGeometry>
        </mxCell>
        <mxCell id="IbaEE7Q07gjaWqTb2W9u-64" value="C_Apartment_Abstract" style="swimlane;fontStyle=1;align=center;verticalAlign=top;childLayout=stackLayout;horizontal=1;startSize=26;horizontalStack=0;resizeParent=1;resizeParentMax=0;resizeLast=0;collapsible=1;marginBottom=0;" vertex="1" parent="1">
          <mxGeometry x="280" y="-160" width="160" height="138" as="geometry" />
        </mxCell>
        <mxCell id="IbaEE7Q07gjaWqTb2W9u-65" value="#  floor number: float" style="text;strokeColor=#d6b656;fillColor=#fff2cc;align=left;verticalAlign=top;spacingLeft=4;spacingRight=4;overflow=hidden;rotatable=0;points=[[0,0.5],[1,0.5]];portConstraint=eastwest;" vertex="1" parent="IbaEE7Q07gjaWqTb2W9u-64">
          <mxGeometry y="26" width="160" height="26" as="geometry" />
        </mxCell>
        <mxCell id="IbaEE7Q07gjaWqTb2W9u-66" value="#  apartment number: float" style="text;strokeColor=#d6b656;fillColor=#fff2cc;align=left;verticalAlign=top;spacingLeft=4;spacingRight=4;overflow=hidden;rotatable=0;points=[[0,0.5],[1,0.5]];portConstraint=eastwest;" vertex="1" parent="IbaEE7Q07gjaWqTb2W9u-64">
          <mxGeometry y="52" width="160" height="26" as="geometry" />
        </mxCell>
        <mxCell id="IbaEE7Q07gjaWqTb2W9u-67" value="#  number of rooms: float" style="text;strokeColor=#d6b656;fillColor=#fff2cc;align=left;verticalAlign=top;spacingLeft=4;spacingRight=4;overflow=hidden;rotatable=0;points=[[0,0.5],[1,0.5]];portConstraint=eastwest;" vertex="1" parent="IbaEE7Q07gjaWqTb2W9u-64">
          <mxGeometry y="78" width="160" height="26" as="geometry" />
        </mxCell>
        <mxCell id="IbaEE7Q07gjaWqTb2W9u-68" value="" style="line;strokeWidth=1;fillColor=none;align=left;verticalAlign=middle;spacingTop=-1;spacingLeft=3;spacingRight=3;rotatable=0;labelPosition=right;points=[];portConstraint=eastwest;" vertex="1" parent="IbaEE7Q07gjaWqTb2W9u-64">
          <mxGeometry y="104" width="160" height="8" as="geometry" />
        </mxCell>
        <mxCell id="IbaEE7Q07gjaWqTb2W9u-71" value="+ virtual show_info(): void" style="text;strokeColor=#6c8ebf;fillColor=#dae8fc;align=left;verticalAlign=top;spacingLeft=4;spacingRight=4;overflow=hidden;rotatable=0;points=[[0,0.5],[1,0.5]];portConstraint=eastwest;" vertex="1" parent="IbaEE7Q07gjaWqTb2W9u-64">
          <mxGeometry y="112" width="160" height="26" as="geometry" />
        </mxCell>
        <mxCell id="IbaEE7Q07gjaWqTb2W9u-72" value="Extends" style="endArrow=block;endSize=16;endFill=0;html=1;exitX=0.008;exitY=0.124;exitDx=0;exitDy=0;exitPerimeter=0;entryX=-0.004;entryY=0.083;entryDx=0;entryDy=0;entryPerimeter=0;" edge="1" parent="1">
          <mxGeometry width="160" relative="1" as="geometry">
            <mxPoint x="281.60000000000036" y="169.664" as="sourcePoint" />
            <mxPoint x="279.2000000000003" y="-149.54600000000005" as="targetPoint" />
            <Array as="points">
              <mxPoint x="250" y="170" />
              <mxPoint x="250" y="-150" />
            </Array>
          </mxGeometry>
        </mxCell>
        <mxCell id="IbaEE7Q07gjaWqTb2W9u-73" value="C_Room_Abstract" style="swimlane;fontStyle=1;align=center;verticalAlign=top;childLayout=stackLayout;horizontal=1;startSize=26;horizontalStack=0;resizeParent=1;resizeParentMax=0;resizeLast=0;collapsible=1;marginBottom=0;" vertex="1" parent="1">
          <mxGeometry x="510" y="-160" width="190" height="86" as="geometry" />
        </mxCell>
        <mxCell id="IbaEE7Q07gjaWqTb2W9u-74" value="-  human:  vector&lt;C_Human&gt;" style="text;strokeColor=#d6b656;fillColor=#fff2cc;align=left;verticalAlign=top;spacingLeft=4;spacingRight=4;overflow=hidden;rotatable=0;points=[[0,0.5],[1,0.5]];portConstraint=eastwest;" vertex="1" parent="IbaEE7Q07gjaWqTb2W9u-73">
          <mxGeometry y="26" width="190" height="26" as="geometry" />
        </mxCell>
        <mxCell id="IbaEE7Q07gjaWqTb2W9u-75" value="" style="line;strokeWidth=1;fillColor=none;align=left;verticalAlign=middle;spacingTop=-1;spacingLeft=3;spacingRight=3;rotatable=0;labelPosition=right;points=[];portConstraint=eastwest;" vertex="1" parent="IbaEE7Q07gjaWqTb2W9u-73">
          <mxGeometry y="52" width="190" height="8" as="geometry" />
        </mxCell>
        <mxCell id="IbaEE7Q07gjaWqTb2W9u-77" value="+ show_who_live_in_room(): void" style="text;strokeColor=#6c8ebf;fillColor=#dae8fc;align=left;verticalAlign=top;spacingLeft=4;spacingRight=4;overflow=hidden;rotatable=0;points=[[0,0.5],[1,0.5]];portConstraint=eastwest;" vertex="1" parent="IbaEE7Q07gjaWqTb2W9u-73">
          <mxGeometry y="60" width="190" height="26" as="geometry" />
        </mxCell>
        <mxCell id="IbaEE7Q07gjaWqTb2W9u-78" value="Extends" style="endArrow=block;endSize=16;endFill=0;html=1;exitX=0.005;exitY=0.125;exitDx=0;exitDy=0;exitPerimeter=0;entryX=-0.011;entryY=0.095;entryDx=0;entryDy=0;entryPerimeter=0;" edge="1" parent="1" source="IbaEE7Q07gjaWqTb2W9u-52" target="IbaEE7Q07gjaWqTb2W9u-73">
          <mxGeometry width="160" relative="1" as="geometry">
            <mxPoint x="480.00000000000034" y="169.66400000000021" as="sourcePoint" />
            <mxPoint x="478" y="-150" as="targetPoint" />
            <Array as="points">
              <mxPoint x="448.4" y="170" />
              <mxPoint x="470" y="-149" />
            </Array>
          </mxGeometry>
        </mxCell>
        <mxCell id="IbaEE7Q07gjaWqTb2W9u-87" value="C_Human_Abstract" style="swimlane;fontStyle=1;align=center;verticalAlign=top;childLayout=stackLayout;horizontal=1;startSize=26;horizontalStack=0;resizeParent=1;resizeParentMax=0;resizeLast=0;collapsible=1;marginBottom=0;" vertex="1" parent="1">
          <mxGeometry x="740" y="-160" width="180" height="138" as="geometry" />
        </mxCell>
        <mxCell id="IbaEE7Q07gjaWqTb2W9u-88" value="# name: string" style="text;strokeColor=#d6b656;fillColor=#fff2cc;align=left;verticalAlign=top;spacingLeft=4;spacingRight=4;overflow=hidden;rotatable=0;points=[[0,0.5],[1,0.5]];portConstraint=eastwest;" vertex="1" parent="IbaEE7Q07gjaWqTb2W9u-87">
          <mxGeometry y="26" width="180" height="26" as="geometry" />
        </mxCell>
        <mxCell id="IbaEE7Q07gjaWqTb2W9u-89" value="# fname: string" style="text;strokeColor=#d6b656;fillColor=#fff2cc;align=left;verticalAlign=top;spacingLeft=4;spacingRight=4;overflow=hidden;rotatable=0;points=[[0,0.5],[1,0.5]];portConstraint=eastwest;" vertex="1" parent="IbaEE7Q07gjaWqTb2W9u-87">
          <mxGeometry y="52" width="180" height="26" as="geometry" />
        </mxCell>
        <mxCell id="IbaEE7Q07gjaWqTb2W9u-90" value="# age: int" style="text;strokeColor=#d6b656;fillColor=#fff2cc;align=left;verticalAlign=top;spacingLeft=4;spacingRight=4;overflow=hidden;rotatable=0;points=[[0,0.5],[1,0.5]];portConstraint=eastwest;" vertex="1" parent="IbaEE7Q07gjaWqTb2W9u-87">
          <mxGeometry y="78" width="180" height="26" as="geometry" />
        </mxCell>
        <mxCell id="IbaEE7Q07gjaWqTb2W9u-91" value="" style="line;strokeWidth=1;fillColor=none;align=left;verticalAlign=middle;spacingTop=-1;spacingLeft=3;spacingRight=3;rotatable=0;labelPosition=right;points=[];portConstraint=eastwest;" vertex="1" parent="IbaEE7Q07gjaWqTb2W9u-87">
          <mxGeometry y="104" width="180" height="8" as="geometry" />
        </mxCell>
        <mxCell id="IbaEE7Q07gjaWqTb2W9u-94" value="+ show_info(): void" style="text;strokeColor=#6c8ebf;fillColor=#dae8fc;align=left;verticalAlign=top;spacingLeft=4;spacingRight=4;overflow=hidden;rotatable=0;points=[[0,0.5],[1,0.5]];portConstraint=eastwest;" vertex="1" parent="IbaEE7Q07gjaWqTb2W9u-87">
          <mxGeometry y="112" width="180" height="26" as="geometry" />
        </mxCell>
        <mxCell id="IbaEE7Q07gjaWqTb2W9u-95" value="Extends" style="endArrow=block;endSize=16;endFill=0;html=1;exitX=1.006;exitY=0.037;exitDx=0;exitDy=0;exitPerimeter=0;entryX=1.011;entryY=0.074;entryDx=0;entryDy=0;entryPerimeter=0;" edge="1" parent="1" source="IbaEE7Q07gjaWqTb2W9u-1" target="IbaEE7Q07gjaWqTb2W9u-87">
          <mxGeometry x="0.0217" y="1" width="160" relative="1" as="geometry">
            <mxPoint x="989.5099999999999" y="184" as="sourcePoint" />
            <mxPoint x="1039.5099999999998" y="-139.3599999999999" as="targetPoint" />
            <Array as="points">
              <mxPoint x="990" y="167" />
              <mxPoint x="1002" y="-148" />
            </Array>
            <mxPoint as="offset" />
          </mxGeometry>
        </mxCell>
      </root>
    </mxGraphModel>
  </diagram>
</mxfile>
